# xmcd
#
# Track frame offsets:
#	150
#	6088
#	15001
#	35128
#	85081
#	130839
#	133886
#	155043
#	166224
#	195986
#	201016
#
# Disc length: 2807 seconds
#
# Revision: 1
# Processed by: cddbd v1.5.2PL0 Copyright (c) Steve Scherf et al.
# Submitted via: audiograbber 1.83.01
#
DISCID=830af50b
DTITLE=Grateful Dead - 70-10-10A Colden Auditorium, Queens College, Queens NY
DYEAR=1900
DGENRE=
TTITLE0=Tuning 2
TTITLE1=Cryptical Envelopment
TTITLE2=Drums
TTITLE3=The Other One
TTITLE4=Not Fade Away > GDTRFB > Not Fade Away
TTITLE5=Casey Jones (false start)
TTITLE6=Casey Jones
TTITLE7=Tuning 2
TTITLE8=Cold Rain and Snow
TTITLE9=Tuning 2
TTITLE10=Me and My Uncle
EXTD=
EXTT0=
EXTT1=
EXTT2=
EXTT3=
EXTT4=
EXTT5=
EXTT6=
EXTT7=
EXTT8=
EXTT9=
EXTT10=
PLAYORDER=
